<?xml version="1.0" standalone="no"?>
<!DOCTYPE svg PUBLIC "-//W3C//DTD SVG 20010904//EN"
 "http://www.w3.org/TR/2001/REC-SVG-20010904/DTD/svg10.dtd">
<svg version="1.0" xmlns="http://www.w3.org/2000/svg"
 width="244.000000pt" height="244.000000pt" viewBox="0 0 244.000000 244.000000"
 preserveAspectRatio="xMidYMid meet">
<metadata>
Created by potrace 1.14, written by Peter Selinger 2001-2017
</metadata>
<g transform="translate(0.000000,244.000000) scale(0.100000,-0.100000)"
fill="#000000" stroke="none">
<path d="M1061 2066 c-13 -16 -20 -255 -7 -253 5 1 11 -4 14 -12 3 -8 0 -11
-7 -7 -6 4 -11 2 -11 -3 0 -6 5 -11 11 -11 5 0 8 -4 4 -9 -3 -5 0 -13 6 -17 8
-4 9 -3 5 4 -4 7 -3 12 3 12 5 0 11 -4 13 -9 2 -4 12 1 23 12 16 16 17 19 3
14 -12 -4 -15 -2 -11 8 3 8 8 13 12 10 4 -2 8 52 9 120 2 101 -1 126 -14 139
-19 20 -38 20 -53 2z m32 -280 c4 -10 1 -13 -8 -9 -8 3 -12 9 -9 14 7 12 11
11 17 -5z"/>
<path d="M672 1863 c-11 -22 -6 -41 20 -69 15 -16 16 -24 7 -29 -8 -6 -10 -4
-4 5 6 9 4 11 -4 6 -9 -6 -8 -13 6 -26 10 -9 22 -15 27 -12 4 2 2 8 -5 13 -9
6 -10 9 -2 9 6 0 20 -11 31 -25 11 -13 23 -21 27 -17 5 4 5 1 1 -5 -11 -19
-23 -16 -31 10 -4 14 -8 17 -12 9 -7 -19 18 -44 38 -39 10 3 24 -2 31 -11 10
-12 10 -14 1 -8 -8 4 -13 1 -13 -8 0 -17 12 -21 24 -9 3 4 15 7 25 8 13 1 17
-3 13 -13 -4 -11 -1 -13 8 -7 9 5 11 4 6 -4 -4 -6 -13 -8 -19 -4 -18 11 -37
12 -37 2 0 -5 3 -9 8 -10 4 0 16 -2 28 -4 15 -3 24 3 33 21 6 14 7 23 1 19 -6
-4 -7 6 -3 25 5 29 0 38 -73 111 -81 81 -114 97 -132 62z"/>
<path d="M1370 1804 c-67 -68 -75 -80 -75 -115 0 -21 3 -39 8 -39 4 0 6 -4 3
-9 -3 -5 5 -12 19 -15 18 -5 31 0 47 16 13 13 22 26 21 31 -2 4 2 7 7 7 6 0
10 6 10 13 0 6 -16 -5 -34 -25 -19 -21 -37 -38 -42 -38 -4 0 0 8 9 18 10 10
15 22 12 25 -3 4 -2 5 1 3 9 -7 33 18 26 28 -3 5 0 6 7 2 6 -4 14 -1 17 8 3 8
14 18 25 21 11 4 17 10 14 15 -3 5 4 14 15 20 11 6 18 15 16 19 -3 4 1 8 9 8
19 0 19 -2 -1 -21 -13 -14 -13 -16 -1 -16 18 0 30 42 16 51 -8 5 -8 9 0 13 16
11 13 43 -5 50 -33 13 -51 3 -124 -70z m-37 -151 c-3 -7 -9 -10 -14 -7 -14 8
-11 21 5 21 8 0 12 -6 9 -14z"/>
<path d="M670 1790 c0 -5 5 -10 11 -10 5 0 7 5 4 10 -3 6 -8 10 -11 10 -2 0
-4 -4 -4 -10z"/>
<path d="M1454 1751 c3 -5 -5 -17 -19 -27 -13 -10 -22 -21 -19 -25 2 -4 17 5
32 19 27 26 31 42 11 42 -6 0 -8 -4 -5 -9z"/>
<path d="M852 1510 c-217 -216 -234 -230 -268 -230 -29 0 -44 -7 -70 -35 -23
-24 -31 -42 -28 -58 2 -12 5 -34 6 -49 1 -16 6 -28 10 -28 4 0 8 -5 8 -11 0
-5 -5 -7 -12 -3 -7 4 -8 3 -4 -4 4 -6 13 -9 21 -6 8 4 12 11 8 17 -3 6 -1 7 5
3 13 -8 5 -36 -12 -36 -6 0 2 -7 18 -15 15 -8 32 -12 37 -9 5 3 9 -1 9 -8 0
-10 2 -10 9 1 5 8 14 10 21 6 9 -6 11 -4 6 4 -5 8 -3 11 6 9 7 -1 23 7 36 20
12 12 18 22 13 22 -6 0 -13 -4 -16 -10 -3 -5 -12 -10 -18 -9 -9 0 -8 2 1 6 6
2 10 9 6 14 -3 5 -2 9 3 8 20 -4 34 2 31 14 -4 22 13 88 21 82 5 -2 14 2 20 9
9 11 9 16 0 22 -8 5 -9 3 -4 -6 6 -9 4 -11 -5 -5 -9 5 -11 4 -6 -3 5 -8 1 -10
-10 -5 -15 5 -14 7 2 17 11 5 27 10 36 11 10 0 18 5 18 10 1 6 10 13 21 17 10
4 19 12 19 18 0 6 -11 3 -25 -6 -14 -9 -22 -20 -19 -25 3 -5 1 -9 -5 -9 -21 0
-19 18 4 30 13 7 22 17 19 21 -5 8 13 22 34 25 10 2 11 -1 1 -12 -6 -8 -8 -14
-3 -14 5 0 9 -78 9 -172 l0 -173 -28 -27 c-21 -21 -27 -37 -27 -69 0 -40 33
-104 49 -95 4 3 8 -2 8 -11 0 -11 -9 -6 -29 16 -15 17 -28 27 -28 22 0 -5 7
-14 15 -21 8 -6 13 -16 12 -20 -1 -4 2 -8 6 -8 4 0 20 -8 34 -17 14 -9 22 -12
19 -6 -4 6 -3 11 3 11 5 0 13 -4 16 -10 4 -6 17 -4 35 5 21 11 27 20 23 32 -6
14 -8 14 -16 -5 -10 -22 -27 -30 -27 -13 0 10 -19 9 -36 -1 -6 -4 -11 -1 -11
6 0 9 11 12 33 10 22 -2 34 2 38 13 5 13 9 13 23 2 15 -12 16 -12 10 4 -4 12
-1 17 11 17 13 0 14 2 3 9 -7 5 -9 11 -4 14 8 5 9 27 4 75 0 7 -13 25 -28 39
l-26 27 0 191 c1 249 2 269 9 262 6 -6 100 84 97 93 -1 3 8 8 19 13 12 4 18
10 15 13 -8 8 -48 -16 -43 -25 3 -4 -6 -13 -19 -19 -14 -7 -25 -16 -25 -22 0
-6 -4 -8 -10 -5 -5 3 -7 0 -4 -8 6 -17 -22 -31 -31 -16 -4 5 -1 8 6 7 7 -2 13
3 14 10 0 7 14 21 30 32 17 11 26 20 20 20 -5 0 2 8 18 18 15 10 25 21 22 24
-3 3 2 11 10 18 13 11 18 11 28 0 10 -10 9 -12 -5 -7 -10 3 -20 1 -24 -4 -4
-7 3 -9 17 -7 17 2 23 9 22 23 -3 28 31 72 42 55 5 -8 4 -11 -2 -7 -6 4 -14 0
-17 -9 -5 -12 -2 -15 9 -10 10 3 13 2 10 -5 -4 -6 -14 -8 -24 -4 -12 5 -13 3
-5 -5 9 -9 17 -9 33 0 28 14 39 7 36 -24 -3 -26 19 -43 31 -24 4 6 3 8 -3 5
-5 -3 -10 1 -10 9 0 9 16 -1 42 -26 41 -40 56 -73 27 -63 -8 4 -4 -5 9 -19 13
-13 34 -24 46 -23 12 1 30 -7 40 -18 10 -11 12 -17 6 -13 -8 4 -13 1 -13 -9 0
-9 5 -13 10 -10 9 5 14 -7 11 -27 0 -4 8 -6 19 -5 11 1 20 5 20 10 0 4 6 5 13
1 6 -4 9 -4 5 1 -4 4 -2 15 5 24 10 13 8 13 -15 -1 -23 -15 -27 -15 -32 -2 -3
9 -2 12 5 9 15 -10 48 24 44 45 -3 15 -249 271 -296 308 -14 10 -48 -20 -247
-218z m416 -62 c11 -14 10 -16 -5 -14 -10 2 -17 6 -15 9 1 4 2 12 2 19 0 6 1
9 3 7 1 -2 8 -12 15 -21z m-709 -379 c-16 -10 -8 -12 15 -3 9 3 13 11 9 18 -4
6 0 6 9 -2 11 -9 18 -9 21 -2 3 6 4 5 3 -2 -2 -7 -9 -12 -15 -10 -6 1 -11 -2
-11 -7 0 -4 -9 -8 -20 -7 -11 0 -20 4 -20 9 0 4 0 12 0 18 0 5 5 7 11 3 8 -4
7 -9 -2 -15z"/>
<path d="M1110 1569 c0 -5 5 -7 10 -4 6 3 10 8 10 11 0 2 -4 4 -10 4 -5 0 -10
-5 -10 -11z"/>
<path d="M1170 1508 c0 -17 3 -19 9 -10 6 10 10 9 14 -7 3 -12 13 -21 23 -21
15 0 13 5 -11 30 -34 36 -35 36 -35 8z"/>
<path d="M1283 1402 c-8 -5 -7 -11 2 -19 10 -10 14 -9 19 2 6 17 -5 26 -21 17z"/>
<path d="M980 1173 c0 -213 1 -220 33 -214 5 1 6 -3 2 -8 -3 -6 -11 -8 -18 -5
-7 2 -13 -3 -13 -14 0 -10 6 -19 13 -19 7 0 10 4 7 9 -3 4 -1 8 5 8 5 0 11 -3
14 -7 2 -5 2 -3 1 4 -3 13 13 28 31 28 11 0 21 52 20 111 -1 38 1 41 25 40 30
-1 63 -38 54 -60 -4 -11 -1 -16 10 -16 9 0 16 -5 16 -11 0 -5 -6 -7 -12 -3
-10 6 -10 5 -1 -8 7 -8 10 -17 7 -21 -3 -3 4 -8 17 -12 17 -6 19 -9 8 -16 -11
-7 -11 -9 -1 -9 7 0 10 -4 7 -10 -3 -6 1 -7 9 -4 9 3 14 9 12 13 -2 3 9 6 25
6 15 1 26 -1 24 -4 -3 -2 3 -10 13 -18 16 -12 16 -13 0 -7 -10 3 -18 2 -18 -3
0 -5 9 -9 20 -10 23 -2 26 7 8 25 -10 10 -10 15 1 21 11 7 8 19 -16 63 -16 29
-33 66 -37 81 -6 25 -3 30 24 40 16 6 30 15 30 20 0 4 -6 5 -12 1 -10 -6 -10
-4 0 7 7 7 12 38 12 71 0 54 -3 61 -40 98 -22 22 -48 41 -57 41 -10 1 -64 2
-120 3 l-103 1 0 -212z m166 125 c5 -3 17 -4 27 -2 11 1 16 0 13 -3 -3 -4 2
-15 11 -26 10 -11 12 -17 6 -13 -15 8 -18 -10 -3 -19 13 -8 2 -32 -18 -40 -9
-4 -38 -9 -63 -10 l-46 -4 0 42 c0 23 3 50 8 59 6 11 5 18 -4 21 -6 2 4 4 24
3 19 -2 39 -5 45 -8z"/>
<path d="M1091 1282 c-9 -18 -9 -22 2 -22 7 0 18 5 25 12 8 8 12 8 12 1 0 -6
7 -14 16 -17 8 -3 12 -2 9 4 -3 6 -1 10 4 10 6 0 11 -5 11 -11 0 -5 4 -7 10
-4 6 4 5 11 -3 19 -6 8 -15 12 -19 10 -4 -2 -10 0 -13 6 -5 8 -11 8 -20 0 -10
-8 -14 -7 -17 2 -3 8 -9 5 -17 -10z"/>
<path d="M1757 1143 c-3 -5 -5 -53 -4 -108 0 -101 8 -125 41 -125 19 0 21 16
4 26 -7 5 -8 3 -3 -6 5 -8 4 -11 -3 -6 -13 8 -5 36 10 36 5 0 6 10 2 23 -7 20
-10 51 -13 140 -1 25 -23 38 -34 20z"/>
<path d="M1260 1130 c-11 -7 -12 -12 -4 -20 9 -9 14 -9 18 -1 4 6 4 11 -1 11
-4 0 -1 5 7 10 8 5 11 10 5 10 -5 0 -17 -5 -25 -10z"/>
<path d="M1660 1111 c0 -12 -6 -21 -15 -21 -17 0 -20 -16 -4 -25 6 -4 8 -13 5
-20 -2 -7 -2 -16 2 -20 4 -3 7 -23 8 -43 2 -69 20 -86 59 -55 16 13 17 15 3
10 -12 -4 -18 -1 -18 9 0 8 4 13 9 9 17 -10 24 18 8 30 -18 13 -23 37 -8 33 5
-2 9 2 9 7 0 6 -4 9 -9 8 -5 -2 -9 4 -9 12 0 8 7 15 15 15 22 0 18 27 -5 33
-11 3 -19 11 -18 18 2 7 -5 15 -14 17 -13 2 -18 -3 -18 -17z m25 -172 c-4 -5
-1 -9 6 -9 7 0 9 -3 6 -6 -9 -9 -38 16 -31 27 3 5 10 7 15 3 5 -3 7 -10 4 -15z"/>
<path d="M1089 1098 c-6 -20 -5 -37 1 -33 5 3 20 1 34 -5 15 -5 26 -6 26 0 0
15 -57 50 -61 38z m36 -26 c-3 -3 -11 0 -18 7 -9 10 -8 11 6 5 10 -3 15 -9 12
-12z"/>
<path d="M1390 1088 c-33 -12 -40 -25 -40 -75 0 -28 4 -43 13 -43 8 0 7 -4 -3
-10 -11 -7 -11 -10 -2 -10 7 0 11 -4 8 -9 -3 -5 1 -14 9 -21 8 -7 15 -9 15 -5
0 4 6 3 13 -3 15 -12 61 4 52 18 -4 6 -15 8 -25 5 -10 -3 -21 -1 -25 5 -3 6
-11 8 -16 5 -5 -4 -9 -2 -9 3 0 6 16 10 35 9 40 -1 69 18 47 32 -7 4 -24 6
-36 4 -13 -3 -27 0 -31 7 -5 8 4 11 31 8 34 -3 39 0 42 19 7 49 -31 78 -78 61z
m40 -38 c0 -5 -9 -10 -21 -10 -11 0 -17 5 -14 10 3 6 13 10 21 10 8 0 14 -4
14 -10z m-17 -130 c10 -12 9 -12 -4 -2 -9 6 -18 9 -21 6 -3 -3 -9 -1 -12 4 -9
15 22 8 37 -8z"/>
<path d="M1566 1093 c-3 -3 -21 -6 -39 -5 l-34 1 0 -79 c0 -45 4 -80 9 -80 6
0 8 7 4 15 -3 8 -2 14 2 14 23 -4 32 4 32 29 0 37 35 40 36 2 1 -14 5 -34 9
-44 6 -14 5 -17 -3 -12 -8 4 -10 2 -6 -8 6 -15 35 -31 33 -18 -1 4 0 9 1 12 6
11 8 126 4 143 -6 19 -38 40 -48 30z m4 -48 c0 -8 -7 -15 -15 -15 -16 0 -20
12 -8 23 11 12 23 8 23 -8z m34 -115 c-6 -6 -10 -3 -10 10 0 13 4 16 10 10 7
-7 7 -13 0 -20z"/>
<path d="M2007 1076 c-68 -63 -36 -163 53 -173 63 -6 100 25 107 88 5 41 2 48
-27 77 -41 41 -94 44 -133 8z"/>
<path d="M1820 1084 c0 -3 5 -14 10 -25 8 -14 7 -19 -1 -19 -8 0 -6 -7 4 -18
10 -10 17 -29 17 -41 0 -12 4 -19 10 -16 6 3 7 -1 4 -9 -3 -9 -12 -16 -20 -16
-16 0 -19 -29 -4 -31 6 -1 16 -2 23 -3 6 -1 19 2 27 8 10 7 9 4 -3 -10 -9 -11
-14 -24 -10 -29 5 -4 2 -5 -5 -1 -7 4 -10 13 -6 19 3 7 -1 4 -9 -5 -8 -10 -16
-15 -19 -12 -4 3 -9 1 -12 -4 -8 -14 51 -9 66 6 6 6 8 12 4 12 -5 0 -3 7 4 15
7 9 10 18 6 22 -3 3 2 15 11 26 11 13 12 17 4 12 -11 -6 -11 -3 2 14 8 13 13
30 10 39 -4 8 -2 13 3 10 5 -3 9 9 10 28 0 26 -4 34 -17 34 -13 0 -22 -13 -30
-42 l-12 -43 -14 43 c-10 30 -20 42 -34 42 -10 0 -19 -3 -19 -6z"/>
<path d="M1034 938 c-3 -4 0 -8 6 -8 6 0 9 -4 6 -8 -3 -5 1 -9 7 -9 7 0 14 8
14 17 2 17 -24 23 -33 8z"/>
<path d="M1237 939 c-22 -13 -22 -24 2 -26 11 -1 22 5 25 12 7 19 -6 26 -27
14z"/>
<path d="M1512 930 c-10 -17 -10 -20 3 -20 8 0 15 9 15 20 0 11 -1 20 -3 20
-1 0 -8 -9 -15 -20z"/>
</g>
</svg>
